<?xml version="1.0" encoding="UTF-8"?>
<svg id="Layer_1" data-name="Layer 1" xmlns="http://www.w3.org/2000/svg" viewBox="0 0 510.41 340.28">
  <defs>
    <style>
      .cls-1 {
        stroke-width: 0px;
      }
    </style>
  </defs>
  <rect class="cls-1" x="396.98" y="154.14" width="85.07" height="85.07" rx="42.53" ry="42.53" transform="translate(242.85 636.19) rotate(-90)"/>
  <path class="cls-1" d="M510.41,297.74h0c0-23.49-19.04-42.53-42.53-42.53h-40.77c-15.2,0-29.24-8.11-36.84-21.27L267.49,21.27c-7.6-13.16-21.64-21.27-36.84-21.27h-60.51c-23.49,0-42.53,19.04-42.53,42.53v42.53c0,23.49-19.04,42.53-42.53,42.53h-42.53c-23.49,0-42.53,19.04-42.53,42.53h0c0,23.49,19.04,42.53,42.53,42.53h68.08c9.39,0,16.99,7.61,16.99,16.99v68.08c0,23.49,19.04,42.53,42.53,42.53h0c23.49,0,42.53-19.04,42.53-42.53v-137.97c0-17.37,23-23.55,31.69-8.51l97.04,167.77c7.6,13.14,21.64,21.24,36.82,21.24h89.65c23.49,0,42.53-19.04,42.53-42.53Z"/>
</svg>